# xmcd
#
# Track frame offsets:
#	150
#	14325
#	29780
#	45802
#	64364
#	82242
#	94673
#	107105
#	120368
#	137251
#	148433
#	164374
#	180852
#	193280
#	210857
#	220729
#
# Disc length: 3191 seconds
#
# Revision: 0
# Processed by: cddbd v1.5.2PL0 Copyright (c) Steve Scherf et al.
# Submitted via: EasyCDDAExtractor 16.0.8.2
#
DISCID=df0c7510
DTITLE=Σκορδαλάκη Κατερίνα - Μανάκι μου
DYEAR=1995
DGENRE=Ρεμπέτικη
TTITLE0=Σκορδαλάκη Κατερίνα-Δημούλιακας Κ.-Ζαχαρογιάννη Τ. - Συρματοπλέγματα β
TTITLE0=αριά[Μπακάλης-Παπαγιαν/λου]
TTITLE1=Σκορδαλάκη Κατερίνα - Μανάκι μου [παραδοσιακό]
TTITLE2=Σκορδαλάκη Κατερίνα-Δημούλιακας Κ.-Ζαχαρογιάννη Τ. - Ψεύτη ντουνιά [Απ
TTITLE2=Χατζηχρήστος]
TTITLE3=Σκορδαλάκη Κατερίνα - Εσύ Σουλτάνα μου[Χ.Βασιλειάδης-Στ.Γιαχασκέλ]
TTITLE4=Σκορδαλάκη Κατερίνα - Καίγομαι, καίγομαι [Γ.Κλουβάτος-Χ.Βασιλειάδης]
TTITLE5=Σκορδαλάκη Κατερίνα-Δημούλιακας Κ.-Ζαχαρογιάννη Τ. - Δυό γυφτοπούλες [
TTITLE5=Τ.Μαρούδας-Ν.Φατσέας]
TTITLE6=Σκορδαλάκη Κατερίνα-Δημούλιακας Κ.-Ζαχαρογιάννη Τ. - Χατζηχρήστος [Απ.
TTITLE6=Χατζηχρήστος]
TTITLE7=Σκορδαλάκη Κατερίνα - Ζαφείρα [Α. Σμυρναίος-Χ. Βασιλειάδης]
TTITLE8=Σκορδαλάκη Κατερίνα-Δημούλιακας Κ.-Ζαχαρογιάννη Τ. - Η νύχτα αυτή που 
TTITLE8=πέρασε [Στ. Τζουανάκος]
TTITLE9=Σκορδαλάκη Κατερίνα-Δημούλιακας Κ.-Ζαχαρογιάννη Τ. - Δεν σε θέλω πια [
TTITLE9=Χ. Γκολές]
TTITLE10=Σκορδαλάκη Κατερίνα - Τι να το κάνω που είσαι ωραία [Απ. Καλδάρας]
TTITLE11=Σκορδαλάκη Κατερίνα-Δημούλιακας Κ.-Ζαχαρογιάννη Τ. - Μήλο μου και μαν
TTITLE11=ταρίνι [παραδοσιακό]
TTITLE12=Σκορδαλάκη Κατερίνα - Κράτα καλό λογαριασμό [παραδοσιακό]
TTITLE13=Σκορδαλάκη Κατερίνα-Δημούλιακας Κ.-Ζαχαρογιάννη Τ. - Μαχαραγιάς [Στ. 
TTITLE13=Τζουανάκος-Ν. Γκούμας]
TTITLE14=Άνευ ερμηνευτού - Σόλο μπουζούκι [Ιωάν. Μωραΐτης]
TTITLE15=Σκορδαλάκη Κατερίνα-Δημούλιακας Κ.-Ζαχαρογιάννη Τ. - Ψαράδες [παραδοσ
TTITLE15=ιακό]
EXTD=
EXTT0=
EXTT1=
EXTT2=
EXTT3=
EXTT4=
EXTT5=
EXTT6=
EXTT7=
EXTT8=
EXTT9=
EXTT10=
EXTT11=
EXTT12=
EXTT13=
EXTT14=
EXTT15=
PLAYORDER=
